<?xml version="1.0" encoding="iso-8859-1"?>
<!-- Uploaded to: SVG Repo, www.svgrepo.com, Generator: SVG Repo Mixer Tools -->
<svg fill="#000000" height="800px" width="800px" version="1.1" id="Layer_1" xmlns="http://www.w3.org/2000/svg" xmlns:xlink="http://www.w3.org/1999/xlink" 
	 viewBox="0 0 512 512" xml:space="preserve">
<g>
	<g>
		<g>
			<circle cx="190.003" cy="134.861" r="10.676"/>
			<path d="M190.003,91.445c-11.597,0-22.501,4.516-30.701,12.716c-8.2,8.201-12.716,19.104-12.715,30.701
				c0,23.939,19.477,43.417,43.417,43.417c23.94,0,43.418-19.477,43.418-43.418C233.419,110.921,213.943,91.445,190.003,91.445z
				 M190.003,162.104c-15.022,0-27.242-12.22-27.242-27.242c0-7.277,2.833-14.118,7.978-19.264
				c5.145-5.145,11.986-7.978,19.264-7.978c15.022,0,27.243,12.22,27.243,27.242C217.245,149.882,205.024,162.104,190.003,162.104z"
				/>
			<path d="M321.998,91.445c-23.94,0-43.418,19.477-43.418,43.417c0,23.94,19.477,43.418,43.418,43.418
				c23.94,0,43.417-19.477,43.417-43.417c0-11.597-4.516-22.5-12.716-30.701C344.498,95.961,333.595,91.445,321.998,91.445z
				 M321.998,162.104c-15.022,0-27.243-12.221-27.243-27.243s12.22-27.242,27.243-27.242c7.277,0,14.118,2.834,19.264,7.978
				c5.146,5.146,7.978,11.986,7.978,19.264C349.24,149.884,337.019,162.104,321.998,162.104z"/>
			<path d="M407.487,207.418c-5.025-5.025-10.757-9.08-16.966-12.096V8.087C390.521,3.62,386.9,0,382.434,0
				c-21.965,0-40.587,13.964-47.342,33.686C312.198,17.02,284.589,7.971,256,7.971c-28.588,0-56.197,9.05-79.091,25.715
				C170.153,13.964,151.531,0,129.566,0c-4.466,0-8.087,3.62-8.087,8.087v187.236c-6.209,3.016-11.941,7.071-16.966,12.096
				c-11.838,11.839-18.357,27.579-18.356,44.32v156.734c0,4.466,3.621,8.087,8.087,8.087c12.784,0,25.095-2.064,36.624-5.865
				c6.566,13.092,16.093,24.054,27.589,32.219h-31.09c-4.466,0-8.087,3.62-8.087,8.087v52.911c0,4.467,3.621,8.087,8.087,8.087
				h257.254c4.466,0,8.087-3.62,8.087-8.087v-52.911c0-4.467-3.621-8.087-8.087-8.087h-31.081
				c11.497-8.165,21.025-19.127,27.589-32.219c11.529,3.8,23.839,5.865,36.624,5.865c4.466,0,8.087-3.621,8.087-8.087V251.74
				C425.844,234.998,419.325,219.258,407.487,207.418z M163.422,48.764c0.118,3.136,2.039,5.92,4.929,7.144
				c2.889,1.222,6.226,0.664,8.56-1.434c21.749-19.557,49.838-30.327,79.09-30.327s57.341,10.77,79.09,30.327
				c2.335,2.097,5.67,2.658,8.56,1.434s4.811-4.008,4.929-7.144c0.582-15.489,11.357-28.134,25.768-31.629v74.008
				c-16.263-23.275-43.233-38.542-73.718-38.542c-15.738,0-31.062,4.089-44.629,11.868c-13.566-7.779-28.89-11.867-44.629-11.867
				c-0.001,0-0.001,0-0.002,0c-24.01,0-46.585,9.351-63.561,26.328c-3.776,3.776-7.151,7.842-10.154,12.127V17.135
				C152.065,20.63,162.838,33.275,163.422,48.764z M374.347,142.493c0,17.153-5.943,33.658-16.79,46.832
				c-30.266,2.7-54.395,26.997-56.841,57.334l-44.714,44.715l-44.714-44.713c-2.448-30.339-26.576-54.636-56.843-57.336
				c-10.847-13.172-16.788-29.676-16.788-46.831c-0.001-19.692,7.667-38.204,21.59-52.128
				c13.924-13.923,32.436-21.591,52.127-21.591c14.327,0,28.231,4.13,40.21,11.943c2.685,1.752,6.152,1.752,8.837,0
				c11.98-7.813,25.883-11.944,40.21-11.944C341.277,68.775,374.347,101.845,374.347,142.493z M102.332,400.066V251.74
				c0-12.422,4.836-24.101,13.619-32.884c8.784-8.784,20.461-13.621,32.882-13.621c25.642,0,46.503,20.862,46.503,46.505v47.557
				C195.332,352.316,154.305,395.933,102.332,400.066z M376.537,459.089v36.737h-241.08v-36.737h37.421
				c0.933,3.435,4.065,5.966,7.796,5.966c3.731,0,6.863-2.531,7.796-5.966h0.411c0.933,3.435,4.065,5.966,7.796,5.966
				s6.864-2.531,7.796-5.966h0.411c0.933,3.435,4.065,5.966,7.796,5.966c3.731,0,6.863-2.531,7.796-5.966h71.033
				c0.933,3.435,4.065,5.966,7.796,5.966c3.731,0,6.863-2.531,7.796-5.966h0.411c0.933,3.435,4.065,5.966,7.796,5.966
				c3.732,0,6.864-2.531,7.796-5.966h0.411c0.933,3.435,4.065,5.966,7.796,5.966c3.731,0,6.863-2.531,7.796-5.966H376.537z
				 M335.332,435.07c-1.184-0.678-2.551-1.072-4.013-1.072c-3.678,0-6.777,2.457-7.758,5.82c-0.151,0.045-0.303,0.086-0.453,0.13
				c-0.939-3.428-4.067-5.949-7.793-5.949c-4.089,0-7.46,3.036-8.002,6.977c-0.542-3.939-3.913-6.977-8.002-6.977
				c-4.466,0-8.087,3.62-8.087,8.087v0.83h-70.452v-0.83c0-4.467-3.621-8.087-8.087-8.087c-4.089,0-7.46,3.036-8.002,6.977
				c-0.542-3.939-3.914-6.977-8.002-6.977c-3.724,0-6.853,2.521-7.792,5.948c-0.151-0.044-0.304-0.085-0.454-0.13
				c-0.982-3.36-4.081-5.817-7.758-5.817c-1.461,0-2.827,0.393-4.01,1.07c-12.981-6.628-23.785-17.169-30.774-30.514
				c38.831-19.131,65.616-59.122,65.619-105.256v-29.538l38.772,38.77c1.579,1.579,3.649,2.368,5.718,2.368
				c2.069,0,4.14-0.789,5.718-2.368l38.772-38.772v29.54c0.002,46.134,26.788,86.125,65.619,105.256
				C359.12,417.901,348.314,428.44,335.332,435.07z M409.668,400.066c-51.972-4.133-93-47.749-93.003-100.768V251.74
				c0-25.643,20.862-46.505,46.503-46.505c12.421,0,24.098,4.837,32.882,13.621c8.783,8.783,13.619,20.462,13.619,32.884V400.066z"
				/>
			<path d="M256.002,147.515c-15.985,0-28.989,13.004-28.989,28.987c0,2.145,0.852,4.201,2.368,5.718l20.902,20.904
				c1.517,1.517,3.573,2.369,5.719,2.369c2.145,0,4.202-0.852,5.719-2.369l20.901-20.904c1.516-1.516,2.368-3.573,2.368-5.718
				C284.99,160.518,271.986,147.515,256.002,147.515z M256.002,185.967l-12.461-12.462c1.352-5.624,6.427-9.817,12.461-9.817
				c6.034,0,11.108,4.192,12.46,9.817L256.002,185.967z"/>
			<circle cx="321.997" cy="134.861" r="10.676"/>
		</g>
	</g>
</g>
</svg>