<!DOCTYPE svg PUBLIC "-//W3C//DTD SVG 1.1//EN" "http://www.w3.org/Graphics/SVG/1.1/DTD/svg11.dtd">
<!-- Uploaded to: SVG Repo, www.svgrepo.com, Transformed by: SVG Repo Mixer Tools -->
<svg fill="#000000" height="800px" width="800px" version="1.1" id="Layer_1" xmlns="http://www.w3.org/2000/svg" xmlns:xlink="http://www.w3.org/1999/xlink" viewBox="0 0 512.001 512.001" xml:space="preserve">
<g id="SVGRepo_bgCarrier" stroke-width="0"/>
<g id="SVGRepo_tracerCarrier" stroke-linecap="round" stroke-linejoin="round"/>
<g id="SVGRepo_iconCarrier"> <g> <g> <g> <path d="M475.948,258.222c-23.004-22.835-53.524-35.411-85.939-35.411h-63.26c0.214-2.251,0.335-4.519,0.335-6.799 c0-8.088-1.377-15.856-3.876-23.105c7.726-8.729,15.484-21.035,15.484-35.254c0-25.423-25.43-44.913-26.512-45.73 c-2.862-2.16-6.81-2.16-9.671,0.001c-0.943,0.712-20.353,15.594-25.342,36.225c-6.689-2.091-13.798-3.219-21.167-3.219 s-14.479,1.128-21.167,3.219c-4.99-20.629-24.399-35.512-25.342-36.225c-2.861-2.16-6.809-2.161-9.671-0.001 c-1.082,0.818-26.512,20.307-26.512,45.73c0,14.22,7.759,26.525,15.484,35.254c-2.5,7.249-3.877,15.018-3.877,23.105 c0,2.28,0.12,4.547,0.335,6.799h-63.26c-32.414,0-62.935,12.576-85.939,35.411C13.062,281.044,0.258,311.445,0,343.826 c-0.021,2.742,1.357,5.305,3.656,6.797c2.301,1.492,5.204,1.707,7.698,0.569c14.124-6.44,29.217-9.706,44.86-9.706 c26.544,0,52.08,9.708,71.904,27.337c1.521,1.353,3.426,2.029,5.333,2.029c1.906,0,3.812-0.676,5.333-2.029 c14.6-12.984,32.177-21.655,51.158-25.335c3.129,7.867,7.67,15.163,13.511,21.562v16.376c0,11.177,9.093,20.272,20.272,20.272 c9.205,0,16.998-6.171,19.462-14.593c8.438,1.547,17.193,1.547,25.629,0c2.462,8.423,10.255,14.593,19.462,14.593 c11.177,0,20.272-9.094,20.272-20.272V365.05c5.84-6.399,10.381-13.695,13.51-21.562c18.981,3.68,36.557,12.351,51.158,25.335 c1.52,1.353,3.427,2.029,5.333,2.029c1.906,0,3.812-0.676,5.333-2.029c19.823-17.629,45.359-27.337,71.903-27.337 c15.644,0,30.736,3.266,44.86,9.706c2.495,1.137,5.397,0.922,7.698-0.569c2.299-1.493,3.679-4.055,3.657-6.797 C511.741,311.445,498.937,281.044,475.948,258.222z M133.449,352.347c-21.922-17.401-49.085-26.91-77.234-26.91 c-5.388,0-10.715,0.353-15.978,1.025c6.22-17.247,17.139-32.7,31.524-44.36c17.897-14.508,40.469-22.498,63.559-22.498h49.608 V317.2c0,3.633,0.285,7.219,0.816,10.745C166.63,331.835,148.791,340.151,133.449,352.347z M185.544,243.553h-50.224 c-26.757,0-52.92,9.262-73.667,26.08c-19.153,15.526-33.009,36.865-39.386,60.501c-1.821,0.517-3.635,1.065-5.434,1.667 c2.863-23.514,13.465-45.253,30.526-62.189c19.976-19.831,46.481-30.751,74.631-30.751h65.139 C186.442,240.367,185.912,241.939,185.544,243.553z M189.359,157.654c0-11.889,9.324-22.844,15.282-28.628 c5.488,5.354,13.843,15.125,15.124,25.867c-9.282,5.525-17.202,13.099-23.136,22.099 C192.76,171.54,189.359,164.74,189.359,157.654z M308.978,243.511c0.932,1.066,2.042,2.869,2.042,5.403V317.2 c0,14.721-5.741,28.555-16.165,38.953c-1.51,1.506-2.358,3.55-2.358,5.682v19.593c0,2.327-1.894,4.221-4.221,4.221 c-2.327,0-4.22-1.894-4.22-4.22v-4.452c0-2.582-1.242-5.006-3.338-6.514c-1.384-0.995-3.026-1.511-4.688-1.511 c-0.856,0-1.716,0.137-2.549,0.416c-11.298,3.786-23.659,3.786-34.961,0c-2.449-0.82-5.14-0.412-7.237,1.096 c-2.095,1.508-3.337,3.932-3.337,6.513v4.449c-0.001,2.328-1.894,4.222-4.221,4.222c-2.327,0-4.221-1.894-4.221-4.221v-19.593 c0-2.133-0.849-4.176-2.358-5.682c-10.424-10.397-16.165-24.232-16.165-38.953v-68.287c0-2.534,1.11-4.336,2.041-5.4 c1.946-2.227,2.51-5.343,1.468-8.111c-2.337-6.205-3.523-12.728-3.523-19.389c0-30.345,24.688-55.033,55.034-55.033 s55.033,24.688,55.033,55.033c0,6.66-1.185,13.183-3.523,19.388C306.469,238.168,307.033,241.284,308.978,243.511z M315.373,176.991c-5.935-9.001-13.856-16.576-23.139-22.1c1.271-10.802,9.606-20.532,15.097-25.866 c5.956,5.81,15.311,16.818,15.311,28.629C322.641,164.74,319.241,171.54,315.373,176.991z M455.785,325.437 c-28.15,0-55.313,9.509-77.234,26.91c-15.342-12.195-33.18-20.511-52.296-24.401c0.532-3.526,0.816-7.112,0.816-10.745v-57.596 h49.608c23.09,0,45.662,7.99,63.559,22.498c14.385,11.66,25.304,27.113,31.524,44.36 C466.501,325.789,461.172,325.437,455.785,325.437z M489.732,330.135c-6.377-23.637-20.233-44.976-39.386-60.501 c-20.747-16.819-46.909-26.08-73.667-26.08h-50.223c-0.368-1.615-0.898-3.185-1.586-4.691h65.139 c28.15,0,54.655,10.922,74.631,30.751c17.06,16.935,27.662,38.675,30.526,62.189C493.367,331.2,491.554,330.652,489.732,330.135z "/> <circle cx="221.374" cy="199.258" r="6.264"/> <path d="M263.242,209.757h-14.579c-4.917,0-6.046,2.795-2.509,6.21l3.946,3.81c3.536,3.414,9.224,3.314,12.637-0.227l3.238-3.358 C269.389,212.652,268.16,209.757,263.242,209.757z"/> <circle cx="290.625" cy="199.258" r="6.264"/> </g> </g> </g> </g>
</svg>