<?xml version="1.0" encoding="iso-8859-1"?>
<!-- Uploaded to: SVG Repo, www.svgrepo.com, Generator: SVG Repo Mixer Tools -->
<svg fill="#000000" height="800px" width="800px" version="1.1" id="Layer_1" xmlns="http://www.w3.org/2000/svg" xmlns:xlink="http://www.w3.org/1999/xlink" 
	 viewBox="0 0 512 512" xml:space="preserve">
<g>
	<g>
		<g>
			<path d="M391.727,222.702H174.47c-6.539,0-11.923,5.034-12.481,11.431c-0.061,0.459-0.085,0.928-0.067,1.405
				c1.174,31.417,14.299,60.767,36.961,82.645c22.72,21.935,52.628,34.015,84.215,34.015s61.496-12.08,84.216-34.015
				c22.66-21.878,35.787-51.228,36.962-82.644c0.018-0.472-0.004-0.938-0.065-1.39C403.66,227.745,398.271,222.702,391.727,222.702z
				 M355.874,306.335c-19.633,18.955-45.479,29.394-72.776,29.394c-27.297,0-53.143-10.439-72.776-29.394
				c-18.558-17.917-29.716-41.63-31.698-67.163h208.948C385.591,264.704,374.432,288.418,355.874,306.335z"/>
			<path d="M457.503,168.522c-11.549,0-21.433,7.262-25.325,17.46c-20.261-14.054-44.378-21.663-69.31-21.663h-70.507v-43.651
				c0-52.065-36.94-95.661-85.985-105.966c2.055-3.189,1.691-7.486-1.101-10.277c-3.216-3.216-8.43-3.216-11.645,0l-7.985,7.985
				c-0.522-0.008-1.041-0.02-1.564-0.02c-0.187,0-0.373,0.005-0.56,0.007V8.235c0-4.548-3.687-8.235-8.235-8.235
				c-4.548,0-8.235,3.687-8.235,8.235v5.498c-50.589,8.026-89.622,51.21-91.195,103.647H65.682
				c-21.107,0-38.278,17.172-38.278,38.279c0,21.107,17.172,38.277,38.278,38.277h10.121v59.395
				c0,83.364,66.392,151.501,149.077,154.342v55.292h-28.402c-13.52,0-24.518,10.999-24.518,24.517
				c0,13.52,10.999,24.518,24.518,24.518h59.405c4.104,0,8.054-1.004,11.572-2.891c3.44,1.842,7.368,2.891,11.536,2.891h59.405
				c13.52,0,24.518-10.999,24.518-24.518v-79.706c67.101-0.025,121.683-54.622,121.683-121.728v-90.431
				C484.597,180.677,472.444,168.522,457.503,168.522z M65.682,177.467c-12.025,0-21.808-9.783-21.808-21.807
				c0-12.025,9.783-21.809,21.808-21.809h79.561c12.026,0,21.809,9.784,21.809,21.809s-9.784,21.807-21.809,21.807H65.682z
				 M263.931,468.156c-5.75,4.491-9.459,11.482-9.459,19.327c0,2.819,0.484,5.525,1.364,8.048h-59.358
				c-4.438,0-8.048-3.61-8.048-8.048c0-4.438,3.61-8.047,8.048-8.047h36.637c4.548,0,8.235-3.687,8.235-8.235v-63.423h22.581
				V468.156z M346.445,487.482c0,4.438-3.61,8.048-8.048,8.048h-59.405c-4.438,0-8.048-3.61-8.048-8.048
				c0-4.438,3.61-8.047,8.048-8.047h36.637c4.548,0,8.235-3.687,8.235-8.235v-63.423h22.581V487.482z M280.401,462.965v-55.188
				h26.991v55.188H280.401z M362.868,391.306h-132.62c-76.08,0-137.975-61.896-137.975-137.975v-59.395h52.969
				c21.108,0,38.279-17.172,38.279-38.277c0-21.108-17.173-38.279-38.279-38.279H92.357c1.74-49.104,42.205-88.521,91.726-88.521
				c50.624,0,91.81,41.186,91.81,91.81v51.886c0,4.548,3.687,8.235,8.235,8.235h78.742c25.984,0,50.94,9.558,70.274,26.912
				c2.419,2.171,5.887,2.718,8.855,1.392c2.968-1.324,4.88-4.27,4.88-7.52v-5.956c0-5.858,4.766-10.624,10.625-10.624
				s10.624,4.766,10.624,10.624v90.43h0C468.128,344.087,420.908,391.306,362.868,391.306z"/>
			<circle cx="179.317" cy="99.693" r="10.509"/>
		</g>
	</g>
</g>
</svg>