<?xml version="1.0" encoding="iso-8859-1"?>
<!-- Uploaded to: SVG Repo, www.svgrepo.com, Generator: SVG Repo Mixer Tools -->
<svg fill="#000000" height="800px" width="800px" version="1.1" id="Layer_1" xmlns="http://www.w3.org/2000/svg" xmlns:xlink="http://www.w3.org/1999/xlink" 
	 viewBox="0 0 512 512" xml:space="preserve">
<g>
	<g>
		<g>
			<path d="M508.295,161.985c-4.077-6.123-10.907-9.779-18.269-9.779c-4.329,0-8.526,1.27-12.14,3.675
				c-6.007,3.998-11.957,5.929-18.297,5.905c5.193-6.155,6.152-15.187,1.724-22.422c-3.52-5.752-9.65-9.186-16.399-9.186
				c-3.532,0-6.996,0.978-10.019,2.827c-5.979,3.661-12.877,5.596-19.946,5.596c-0.421,0-0.832,0.036-1.246,0.063l-12.77-10.922
				c-1.655-1.567-3.391-3.052-5.164-4.418c-0.183-0.153-0.373-0.298-0.567-0.434c-11.562-8.7-25.326-13.297-39.824-13.297
				c-9.432,0-18.488,1.984-26.723,5.598c-10.308-5.222-21.762-7.967-33.407-7.967c-19.157,0-37.707,7.559-51.44,20.853H115.078
				c-40.402,0-75.05,25.094-89.187,60.511C10.079,196.502,0,212.662,0,230.501v6.039c0,4.437,3.597,8.034,8.034,8.034
				s8.034-3.597,8.034-8.034v-6.039c0-4.926,1.186-9.65,3.313-13.867c-0.189,2.452-0.285,4.928-0.285,7.428v19.235
				c0,6.221,2.07,12.126,5.884,16.926v8.759c0,20.518,10.362,39.529,27.339,50.703v64.507c0,11.35,9.235,20.585,20.585,20.585
				h95.755c7.58,0,13.745-6.166,13.745-13.745c0-8.438-3.606-16.278-9.829-21.738v-39.629h56.411v54.527
				c0,11.35,9.235,20.585,20.585,20.585h95.755c7.58,0,13.745-6.166,13.745-13.745c0-8.439-3.606-16.278-9.829-21.738v-61.441
				c8.396-10.077,13.549-22.895,14.008-36.842h56.401c14.678,0,28.479-5.716,38.857-16.095
				c10.38-10.379,16.095-24.179,16.095-38.857c0-1.279-0.06-2.557-0.149-3.833c0.129-0.05,0.262-0.095,0.39-0.147
				c4.825-1.935,9.452-4.358,13.754-7.201c9.002-5.951,15.228-11.689,19.033-17.541
				C513.219,178.738,513.455,169.735,508.295,161.985z M414.95,154.669c10.032,0,19.831-2.752,28.335-7.959
				c0.502-0.307,1.052-0.464,1.63-0.464c1.11,0,2.118,0.562,2.694,1.506c0.905,1.477,0.437,3.417-1.041,4.322
				c-9.495,5.811-20.428,8.883-31.618,8.883c-1.734,0-3.145-1.41-3.145-3.144C411.805,156.08,413.215,154.669,414.95,154.669z
				 M149.498,388.706c-0.598-7.543-4.08-14.461-9.727-19.416v-39.628h16.736v43.629c0,2.762,1.418,5.33,3.757,6.801
				c3.13,1.969,5.221,5.087,5.864,8.614H149.498z M326.165,388.707v-0.001c-0.598-7.543-4.079-14.461-9.727-19.415v-41.217
				c5.986-1.386,11.607-3.646,16.736-6.63v51.847c0,2.763,1.418,5.33,3.757,6.801c3.13,1.969,5.222,5.087,5.865,8.614H326.165z
				 M307.529,313.317c-4.074,0.447-7.16,3.887-7.16,7.987v51.988c0,2.763,1.418,5.33,3.757,6.801
				c3.13,1.969,5.222,5.087,5.865,8.614h-60.42c-2.49,0-4.517-2.027-4.517-4.517v-62.561c0-4.437-3.597-8.034-8.034-8.034H131.736
				c-4.437,0-8.034,3.597-8.034,8.034v51.663c0,2.763,1.419,5.33,3.757,6.801c3.13,1.969,5.222,5.087,5.864,8.614H72.904
				c-2.491,0-4.517-2.027-4.517-4.517v-69.039c0-2.931-1.597-5.63-4.166-7.041c-14.293-7.853-23.173-22.846-23.173-39.129v-11.845
				c0-2.199-0.902-4.303-2.495-5.82l-0.169-0.161c-2.076-2.109-3.219-4.896-3.219-7.859v-19.235
				c0-44.065,35.849-79.914,79.915-79.914h132.092c2.221,0,4.343-0.919,5.862-2.54c11.07-11.809,26.062-18.313,42.216-18.313
				c5.686,0,11.312,0.839,16.697,2.456c-7.46,6.46-13.503,14.616-17.525,24.031h-0.448c-4.437,0-8.034,3.597-8.034,8.034
				c0,4.649,1.219,9.017,3.347,12.81c-0.138,1.756-0.216,3.521-0.215,5.278v43.535c0,0.345,0.024,0.689,0.069,1.029
				c1.276,28.401,24.373,50.541,52.9,50.541h5.137C346.2,292.899,329.485,310.912,307.529,313.317z M318.497,165.848
				c-1.734,1.359-3.916,2.17-6.286,2.17c-2.37,0-4.551-0.811-6.286-2.17H318.497z M447.146,243.55
				c-7.344,7.344-17.109,11.389-27.496,11.389h-77.61c-20.044,0-36.239-15.69-36.869-35.719c-0.005-0.168-0.016-0.335-0.032-0.502
				v-35.606c2.253,0.63,4.622,0.975,7.073,0.975c14.487,0,26.272-11.785,26.272-26.272c0-4.437-3.597-8.034-8.034-8.034h-18.013
				c8.959-14.772,25.069-24.119,42.941-24.119c11.054,0,21.539,3.524,30.328,10.193c0.042,0.033,0.084,0.065,0.125,0.097
				c1.432,1.095,2.839,2.298,4.178,3.575c0.104,0.1,0.211,0.196,0.32,0.289l8.623,7.375c-2.028,3.045-3.217,6.696-3.217,10.622
				c0,10.593,8.619,19.212,19.213,19.212c2.247,0,4.484-0.109,6.71-0.303c-2.578,5.165-3.647,11.142-2.703,17.269
				c2.19,14.195,14.192,24.498,28.54,24.498c1.474,0,2.966-0.115,4.45-0.344c2.153-0.337,4.358-0.761,6.566-1.225
				C458.294,226.982,454.285,236.411,447.146,243.55z M494.158,178.575c-2.543,3.911-7.395,8.25-14.422,12.895
				c-3.397,2.245-7.055,4.16-10.875,5.692c-3.734,1.497-7.79,2.743-12.055,3.704c-2.477,0.557-4.949,1.03-7.328,1.403
				c-0.658,0.102-1.325,0.153-1.983,0.153c-6.261,0-11.704-4.678-12.66-10.88c-1.079-6.991,3.731-13.559,10.719-14.641
				c0.468-0.073,0.973-0.108,1.543-0.108c1.411,0,3.032,0.221,4.751,0.454c1.583,0.215,3.22,0.438,4.997,0.544
				c10.411,0.628,20.508-2.255,29.943-8.534c0.967-0.645,2.088-0.984,3.238-0.984c1.974,0,3.804,0.978,4.894,2.616
				C495.957,172.446,496.84,174.453,494.158,178.575z"/>
			<circle cx="89.769" cy="183.567" r="7.06"/>
			<circle cx="372.73" cy="181.16" r="8.058"/>
			<circle cx="229.96" cy="183.567" r="7.06"/>
			<circle cx="164.543" cy="161.158" r="7.06"/>
		</g>
	</g>
</g>
</svg>